# xmcd CD database file
# Copyright (C) 1993-1998 Ti Kan
#
# Track frame offsets:
#  150
#  21505
#  43933
#  68328
#  108743
#  125898
#  147455
#  161845
#  166745
#
# Disc length: 2479 seconds
#
# Revision: 1
# Processed by: cddbd v1.4b41PL1 Copyright (c) Steve Scherf et al.
# Submitted via: CDWizzard Release:4.35
#
DISCID=8509ad09
DTITLE=Amy Grant - In Concert Volume 2
DYEAR=1900
DGENRE=
TTITLE0=I'm Gonna Fly
TTITLE1=Too Late
TTITLE2=So Glad
TTITLE3=You Gave Me Love, Fill Me With Your Love, What A Difference You'v
TTITLE3=e Made In My Life
TTITLE4=If I Have To Die
TTITLE5=That's The Day
TTITLE6=Look What Has Happened To Me
TTITLE7=Keep It Goin'
TTITLE8=Nobody Loves Me Like You
EXTD=
EXTT0=
EXTT1=
EXTT2=
EXTT3=
EXTT4=
EXTT5=
EXTT6=
EXTT7=
EXTT8=
PLAYORDER=
